/* XPM */
static char *_52bfed6de394ddab7fe8e9636c487c6[] = {
/* columns rows colors chars-per-pixel */
"16 16 192 2 ",
"   c #BB9F44",
".  c #BEA341",
"X  c #BEA242",
"o  c #BCA144",
"O  c #BEA147",
"+  c #BEA346",
"@  c #BFA446",
"#  c #BFA447",
"$  c #BFA54B",
"%  c #BFA44F",
"&  c #BEA250",
"*  c #C2A644",
"=  c #C0A446",
"-  c #C0A447",
";  c #C0A547",
":  c #C2A747",
">  c #C3A747",
",  c #C5AA42",
"<  c #C5AA43",
"1  c #C7AB46",
"2  c #C7AC45",
"3  c #C1A648",
"4  c #C1A749",
"5  c #C3A748",
"6  c #C0A44A",
"7  c #C1A64A",
"8  c #C3A74B",
"9  c #C1A64D",
"0  c #C4A94C",
"q  c #C6AB4C",
"w  c #C5A94E",
"e  c #C7AC4E",
"r  c #C9AE49",
"t  c #CAAF4B",
"y  c #C8AD4C",
"u  c #C9AF4E",
"i  c #C9AE4F",
"p  c #CAAF4F",
"a  c #CBB04B",
"s  c #CCB149",
"d  c #CCB14A",
"f  c #CCB04D",
"g  c #CCB14D",
"h  c #CDB24C",
"j  c #CDB24D",
"k  c #CCB14F",
"l  c #CDB24E",
"z  c #CDB24F",
"x  c #C4A852",
"c  c #C4A952",
"v  c #C5AA53",
"b  c #C7AC52",
"n  c #C6AB54",
"m  c #C4A956",
"M  c #C9AE50",
"N  c #C8AD52",
"B  c #C9AE52",
"V  c #C8AF52",
"C  c #C8AE55",
"Z  c #C9AE55",
"A  c #CAAF55",
"S  c #C7AD58",
"D  c #C8AD59",
"F  c #C8AD5A",
"G  c #C9AE5A",
"H  c #CAAF5C",
"J  c #CEB350",
"K  c #CFB453",
"L  c #CAB056",
"P  c #CEB354",
"I  c #CCB156",
"U  c #CCB157",
"Y  c #CFB454",
"T  c #CEB556",
"R  c #CFB557",
"E  c #CEB35B",
"W  c #CFB558",
"Q  c #CBB15C",
"!  c #CAB05E",
"~  c #CAB05F",
"^  c #CDB25C",
"/  c #CCB35F",
"(  c #CDB35F",
")  c #CFB55C",
"_  c #CFB45D",
"`  c #CFB45F",
"'  c #D0B555",
"]  c #D0B456",
"[  c #D0B656",
"{  c #D3B850",
"}  c #D4B951",
"|  c #D4B953",
" . c #D3B855",
".. c #D3B856",
"X. c #D3B857",
"o. c #D5BA56",
"O. c #D5BB57",
"+. c #D0B558",
"@. c #D0B559",
"#. c #D0B659",
"$. c #D1B65A",
"%. c #D0B65B",
"&. c #D2B75B",
"*. c #D0B65C",
"=. c #D1B75C",
"-. c #D2B75E",
";. c #D3B95B",
":. c #D7BC5A",
">. c #D1B85F",
",. c #D3B95E",
"<. c #D2B85F",
"1. c #D4BA5C",
"2. c #D4BA5D",
"3. c #D6BB5C",
"4. c #D4BA5E",
"5. c #D4BA5F",
"6. c #D8BD5F",
"7. c #CCB261",
"8. c #CCB366",
"9. c #CDB465",
"0. c #CEB568",
"q. c #D0B661",
"w. c #D1B761",
"e. c #D0B763",
"r. c #D0B667",
"t. c #D0B767",
"y. c #D3B960",
"u. c #D3B961",
"i. c #D3BA63",
"p. c #D4B960",
"a. c #D6BB61",
"s. c #D4B963",
"d. c #D5BA62",
"f. c #D6BC61",
"g. c #D7BD61",
"h. c #D5BC63",
"j. c #D6BC62",
"k. c #D6BC63",
"l. c #D3B966",
"z. c #D2B967",
"x. c #D3B967",
"c. c #D3BA67",
"v. c #D5BB65",
"b. c #D5BB66",
"n. c #D5BA67",
"m. c #D5BB67",
"M. c #D5BC66",
"N. c #D7BD67",
"B. c #D8BF63",
"V. c #D9BF64",
"C. c #D2B86B",
"Z. c #D5BB69",
"A. c #D4BA6B",
"S. c #D5BC69",
"D. c #D6BC69",
"F. c #D5BD6A",
"G. c #D6BD6A",
"H. c #D6BD6B",
"J. c #D7BD6B",
"K. c #D4BA6C",
"L. c #D6BD6C",
"P. c #D7BE6E",
"I. c #D7BE6F",
"U. c #D8BF68",
"Y. c #D9BF6B",
"T. c #DABF6B",
"R. c #D8BE6C",
"E. c #D8BE6E",
"W. c #D8BF6F",
"Q. c #D6BC70",
"!. c #D6BE70",
"~. c #D7BE70",
"^. c #D9C064",
"/. c #DBC066",
"(. c #DAC06D",
"). c #DBC36D",
"_. c #DBC16E",
"`. c #DBC26E",
"'. c #D8C070",
"]. c #DBC171",
"[. c #DBC270",
"{. c #D8C073",
"}. c #DAC172",
"|. c #DAC173",
" X c #DBC272",
".X c #DCC373",
"XX c #D9C074",
"oX c #DBC274",
"OX c #DAC176",
"+X c #DDC475",
"@X c #DAC17A",
"#X c None",
/* pixels */
"#X#X#X#X#XG.x.!.!.x.E.#X#X#X#X#X",
"#X#X#XG.x.r.F F D v ! q.E.#X#X#X",
"#X#XG./ ! V #.5.5.T q v / G.#X#X",
"#X*.r.D T `.`..X`.T.B.h # A I.#X",
"#XXXD [ +XXX9.T.T.w.q.V.t 9 5.#X",
"i.@XL [.'.XX8.n.T.n.m d.5.> I E.",
"'.C.W +XE.x.0.*.h.n.& t B.r w h.",
"'.7.5.'.w.*.K.A K / O * K h 4 #.",
"~.~ 3.[.d.E r.b K D   - J h - #.",
"E.r.J E.T.B.M.A #.9 t o.#.1 5 5.",
"*.~.t U.M.d.6.v B 9 o.[ | X t x.",
"#XE.D h ^.h.5.I - 4 o.| , O [ #X",
"#X*.E.v t :.5.B # h | , X t x.#X",
"#X#Xd.n.n 5 r s s 2 X # k i.#X#X",
"#X#X#X*.d.*.B 9 4 w t [ n.#X#X#X",
"#X#X#X#X#X*.,.#.W ;.d.#X#X#X#X#X"
};
