/* XPM */
static char *c4c86ae2d14f498c89bceff780db05c6[] = {
/* columns rows colors chars-per-pixel */
"64 64 112 2 ",
"   c #8F7638",
".  c #927737",
"X  c #947A37",
"o  c #997D35",
"O  c #94793C",
"+  c #997D3A",
"@  c #967D41",
"#  c #987E44",
"$  c #9E8336",
"%  c #9F8930",
"&  c #9E833B",
"*  c #A28737",
"=  c #A58A36",
"-  c #A28639",
";  c #A58B3D",
":  c #A98D3C",
">  c #AE9234",
",  c #AD923C",
"<  c #B29635",
"1  c #B89C36",
"2  c #B1963B",
"3  c #B49B3B",
"4  c #BA9E3A",
"5  c #BCA23B",
"6  c #C0A535",
"7  c #C6AA36",
"8  c #C8AB37",
"9  c #C1A53A",
"0  c #C5AA3C",
"q  c #CAAE3E",
"w  c #CDB13E",
"e  c #D2B53D",
"r  c #D5B83E",
"t  c #9E8343",
"y  c #A58A42",
"u  c #AB8E41",
"i  c #A68C4B",
"p  c #AA8F48",
"a  c #AD9142",
"s  c #AE954B",
"d  c #B29545",
"f  c #B59C43",
"g  c #BA9F43",
"h  c #B39648",
"j  c #B69A4A",
"k  c #BA9C4C",
"l  c #B09650",
"z  c #B59A52",
"x  c #BD9F50",
"c  c #B89E59",
"v  c #BCA344",
"b  c #BCA34D",
"n  c #BDA253",
"m  c #BFA854",
"M  c #BCA358",
"N  c #B59D60",
"B  c #C2A645",
"V  c #C5AB44",
"C  c #CAAD43",
"Z  c #C2A64A",
"A  c #C4AA4D",
"S  c #CAAE4B",
"D  c #CDB243",
"F  c #CDB14E",
"G  c #D1B544",
"H  c #D6B943",
"J  c #D9BC46",
"K  c #D1B64B",
"L  c #D5B94C",
"P  c #D9BD4B",
"I  c #C2A554",
"U  c #C5AB53",
"Y  c #C9AE54",
"T  c #C3A759",
"R  c #C6AB5A",
"E  c #C9AE5B",
"W  c #CEB353",
"Q  c #CDB35B",
"!  c #D1B654",
"~  c #D3B954",
"^  c #DABE52",
"/  c #D1B65B",
"(  c #D4BA5C",
")  c #D9BE5E",
"_  c #C3AA63",
"`  c #CAAE61",
"'  c #CDB362",
"]  c #CDB46C",
"[  c #D1B661",
"{  c #D5BA63",
"}  c #D8BE65",
"|  c #D1B669",
" . c #D6BC6B",
".. c #D8BF6C",
"X. c #D6BE71",
"o. c #D8BF71",
"O. c #DAC054",
"+. c #DAC05C",
"@. c #DAC165",
"#. c #DAC16C",
"$. c #D7C072",
"%. c #DAC274",
"&. c #DCC47A",
"*. c #E0C87A",
"=. c #DEC681",
"-. c #DFC885",
";. c #DFCA88",
":. c #E1CA86",
">. c #E0CA89",
",. c #E4CF95",
"<. c #E9D59C",
"1. c None",
/* pixels */
"1.1.1.1.1.1.1.1.1.1.1.1.1.1.1.1.1.1.1.1.1.1.1.1.1.1.1.1.{  . .X.X. . . .1.1.1.1.1.1.1.1.1.1.1.1.1.1.1.1.1.1.1.1.1.1.1.1.1.1.1.1.",
"1.1.1.1.1.1.1.1.1.1.1.1.1.1.1.1.1.1.1.1.1.1.1.{ ..&.&.=.=.&.&.&.&.&.&.&.&.&.%.$...1.1.1.1.1.1.1.1.1.1.1.1.1.1.1.1.1.1.1.1.1.1.1.",
"1.1.1.1.1.1.1.1.1.1.1.1.1.1.1.1.1.1.1.1.{ o.=.&.&.X.X.[ U [ $.$.$.X.X.o.[ [ { %.&.&.$.X.1.1.1.1.1.1.1.1.1.1.1.1.1.1.1.1.1.1.1.1.",
"1.1.1.1.1.1.1.1.1.1.1.1.1.1.1.1.1.1.{ &.=.%.X.$.A v U U E o.%.] Q o.$.Y Z Z U U | ..$.&.%.o.1.1.1.1.1.1.1.1.1.1.1.1.1.1.1.1.1.1.",
"1.1.1.1.1.1.1.1.1.1.1.1.1.1.1.1.[ &.>.=.[ I ' &.%.E U Q ' o.&.n j %.o.Z A / [ E / X.[ /  .$.%.X.1.1.1.1.1.1.1.1.1.1.1.1.1.1.1.1.",
"1.1.1.1.1.1.1.1.1.1.1.1.1.1.1.o.>.| A Y U E o.o.%.Y Z Y R Q o.%.$.o.%.[ A A R Y  . .Z A A E | &.%.1.1.1.1.1.1.1.1.1.1.1.1.1.1.1.",
"1.1.1.1.1.1.1.1.1.1.1.1.1.[ =.;.&.Q A A ' Q %.&.X.A E ' I I T T I I T R U U E ( X.[ B Y Q R Q [ X.%.o.1.1.1.1.1.1.1.1.1.1.1.1.1.",
"1.1.1.1.1.1.1.1.1.1.1.1...>.X. .%.&.&.| U E X.| T I I x m n x n n n n n x x n I E  .Y A Y Q Q / { { o.%.1.1.1.1.1.1.1.1.1.1.1.1.",
"1.1.1.1.1.1.1.1.1.1.1.%.-.E Y Y  .%.%.&.[ T I n n m m A V C D D D C C V Z b n b k b T U U R Q { { A Y X.%.1.1.1.1.1.1.1.1.1.1.1.",
"1.1.1.1.1.1.1.1.1.1.&.&.U B Z ' E X.&.' n n m m V D e r J P P ^ ^ P P P H r w C b b k k m [  . .Y E R Q ..o.1.1.1.1.1.1.1.1.1.1.",
"1.1.1.1.1.1.1.1.1.%.>.X.v Y A R R Q m b m m C r J ~ { ..o.%.*.#.*.%.%.#.@.) ^ J r w Z b b k E Q Z Y W { [ ..o.1.1.1.1.1.1.1.1.1.",
"1.1.1.1.1.1.1.1.o.;.&.&. .Z A [ ` n M m C r P ) $.&.&.o.%.%.*.#.#.%.%.#.%.$.#.#.) P H w v k k b Z W { { Q Z { o.1.1.1.1.1.1.1.1.",
"1.1.1.1.1.1.1. .;. .| o.&.[ E R M m A e J @.*.*.%.%.%.*.*.#.#.%.#.#.%...#.#.....X. .( J r 0 k k k [ { Q b E W ..o.1.1.1.1.1.1.1.",
"1.1.1.1.1.1./ >.Q U ' Q &.&.R n m D r +.&.%.$.%.%.%.*.#.#.#.%.#.%.#...#.#.X.....@. .#. .~ H w g k j Q B A Y Y !  .$.1.1.1.1.1.1.",
"1.1.1.1.1.1.=. .Z R Q ' o.T x m G H @.*.*.%.%.%.*.[ } #.#.*.%.......#.#. .#./ ( #.@.@.@.#.+.L e v k h Z A Y A A Q #.1.1.1.1.1.1.",
"1.1.1.1.1.X.=.A A X.R ' ` n m D J #.*.%.%.%.%.%. .W ) %.%.%.#...#.#.#.X.#.#.F F  . . . .@.{ ( L e v k j E Y ' | A [ o.1.1.1.1.1.",
"1.1.1.1./ -.&.Z Y Y R R n m G J $.%.%.$.%.%.%.%. ._ W %.#.o.%.#...#. .#...} W R W  .| { } } } { J w v f g U R U / / { o.1.1.1.1.",
"1.1.1.1.%.-.&.E Z Y [ n m S H %.&.%.%.%.%.o.%.} >.N Z ..%.....#.....#.#...{ W ] 3 )  .} } } } } ) H q g h b ! ( / / / ..1.1.1.1.",
"1.1.1./ -.&.%.&.o.%.m M A r #.%.%.$.$.$.$.%...{ <.c g @.#.#.#.#.#.#.#.} ..W ( =.a S } } } } { } } ( H 0 k h ' / / / / [ o.1.1.1.",
"1.1.1.%.=.o.&.%.&.] k m G +.&.%.&.$.%.%.%.%.( >.>.` u { %...#...#. . . ...W o.&.R > /  .} ) ) ) } } ~ e 9 h k / / / / / o.1.1.1.",
"1.1.Q =.&.&.o.&.o.I M D J *.%.&.*.%.%.%.%.} ..,.&.X.y / #. . ... . . . .} S %.o...k B ) { { { { ( { ( L q g d Q / / / W { o.1.1.",
"1.1. .=.o.o.o.&.' k I H @.*.%.%.#.%.%.$.%.( =.-.&.&.p A  .......}  ...} [ W =. ...R t W { { { [ [ / [ ~ G 9 f k ( Q / ! ( ..1.1.",
"1.1.&.=.o.%.&.&.I M D P %.&.%.o.%.#.%.#.$./ X.=.&.&.z v @.#.....#.#.} #.W / =.{ } c $ ~ } { { ) ( ( ( ( L 0 g h W / / / Q  .1.1.",
"1.W =.&.&.%.&.] b m H @.%.#.o.o.%.%.$.#.%.[ { -.o.%._ a ) #.@.#.} } #.} F  .%.{ #.i , ) } ) { ) ( { ( { ~ e 5 h I / ! Q W [ &.1.",
"1.{ =.%.&.o.&.` z A J %.%.%.%.%.#.%.%.( ( [ / ;.%.%.] ; ! #...#.#.} @.} F %.o.{ } # g ~ S ~ ) ( ( ( ( ( ( G 0 f j / W Q W / X.1.",
"1.$.=.%.o.&.%.I n D O.&.%.%.%.#.o.$.}  .U A ! &.&.$.X.p Y ....} } } } ( S &. .{ ` @ C C x 9 ) ) ( / ) ( ( K w 3 d W / ! ! /  .1.",
"1.&.&.$.%.o.X.I m r @.%.%.o.$.o.o.$.[ ,.X.g 4 X.=.X.%.s B } #.} #.} ../ W =.{ } x + S Y Q , S ) ( / ( ) ( ! G 5 d U / Q W ! { 1.",
"1.&.&.%.o.%.| x Z J #.$.#.%.$...o.{ ( =.&.%.E I $.$.%.M 2 ) ....} } } F { %.[ } z h / { x - 4 ~ { / ( ( / ! G 5 a x ! ! W ! [ 1.",
"W =.&.o.o.&.' z V P *.#.$.#.#.%...[ ! W  .&.&.o.X.X.$.' : 0 V C S S B 9 [ ..[ { ( { x y - 9 C K / / ( ( ( ! G 0 d j ! ! W W ( o.",
"Q =.o.%.o.%.` z S P %.%.#.$.$.$.{ W / / W !  .o.%.X...X./ F A V B B C S E { { [ k t - 4 C D C 0 F / ( ~ ( ! G 0 3 h / W ! W / o.",
"/ &.%.%.$.o.R k D O.%.#.$.%.#... .X.3 W / / F W &.%.X. .| ..X. .}  . .{ } [ { I . B C D D V A b 1 ~ ) ~ ~ / K q 3 h / W ! W / o.",
"/ =.&.] X.&.T z D O.%.%.%.#.#.( >.-.R 3 5 S / F  .&.| ..z I ( / / / Q { %.[ ) l - G D q V U / W = 0 +.~ / ! F 0 3 h ! W A W ! X.",
"/ =.&.s b &.T k D O.%.%.#.%.} !  .o.&.X.R g 1 B Q &.{ #.T : K C C C q | o./ ) t 2 q B S E ( U : = 6 K ( / ! K q 3 h / B * W / ..",
"/ &.X.X.o.&.R k D O.%.#.#.#.#.{ W ! X.&.%.o.[ Z g  .X. .[ ; S S C S S %.} / / t g U W / U u * < 8 S ( ~ ! ! D q 2 h ! W S F ! X.",
"Q &.o.&.o.o.E k D ^ &.#.$.#.#.#.../ F !  .%.&.$. ./ {  . .f 9 9 9 9 6 { [ [ / E / Y k - $ < 8 w ! / ~ ~ ~ ~ G 0 2 h ! W W W / o.",
"Q &.o.o.o.%.` k V P #.#.#.#.#.#.#... .! F W / X.o.o. . .| [ [ / Q Q ! Q / Q W z y - = 1 8 D ! / ( ! ! ~ ~ ~ G 0 a k ! K W S / o.",
"1.&.%.o.X.o.| j A H @.#... .#.} #...#.@.} / F S W { &.[ { Q Q { { {  .{ ! ) u o 4 8 C K W / / / ! ~ W W ~ ~ G 5 : b ! W S F / 1.",
"1.$.%.X.X...X.j b H +.X.#. . ...} ..} ..} } } ) W W =.{ { R ; F S C o. .! [ # 4 K ! / ( ! / ! ~ ! ! ! W W K w 4 u Z ! F W F [ 1.",
"1. .&.X.o.o.o.I k D ^ X..... . .} #.#.@.} } } } { S &.| { [ ; V C C %.{ / Y O C ( ( ~ ( / ~ / ~ ! W ! ! ! K q 3 a Y F W F W { 1.",
"1./ &.X.o...o.R j V P  .}  ... . . .} }  .} { } { F $...[ { u 5 C F &.W / x o D ( ~ ( ~ ( ~ ~ ~ ! W W ! ! D 0 2 h ! W W F W ..1.",
"1.W &.o.o.....| j b r ) ......} } { { { { { { { { F { %./ { j d q / o.W ( p = L ) ( ~ ( ~ ~ ~ ! ! ~ ! ! K D 5 : b ! F W F Q o.1.",
"1.1.o.o.X.X.X...b j D P ..#.....}  .{ } } } } { } ~ W &./ ( A : q .. .W ! t < ~ ( ~ ~ ! ~ ~ ! ! ~ ~ K ~ D q 3 u Y F F F F ( 1.1.",
"1.1.{ &.X...X...' d B H ) ..@.} }  .{ { } ) } ) { ( S &.[ / Q - S %./ W W . 9 ~ ( ~ ~ ~ ~ W ! ~ ~ ! ~ K D 9 , j K F F F W  .1.1.",
"1.1.W &...X. . .X.k f D P } @.} @.{ {  .{ { { { } { C %.{ ( I - q / / ! I o D ) ~ ( ~ ~ ! ! ~ ~ ~ K K D 0 3 : Y W F W F Q o.1.1.",
"1.1.1. .o. .X. . .R h v J ~ @. .@.{ { } { @.{ ( { ) F { ../ k = q 9 F ~ h $ K ! ~ ~ ~ ! ! ~ ~ K ! W D D 5 : j ! S W F W { 1.1.1.",
"1.1.1./ &. . . . . .x h C J +.@.@.@.+.{ { ) ( { ) { K W &.! Q y < 9 F ! t > L ) ~ ~ W ! ~ ! ~ K K K D 0 , u Y F W F S ! X.1.1.1.",
"1.1.1.1...o.{  . . .[ f f D J +. .) { { [ [ { ) ( ) / S &.W ! W S W W F O 4 ~ ! ! ! ! ~ ~ ! ! W K D q 3 ; b K ! S F W [ 1.1.1.1.",
"1.1.1.1.Q o. . . . .X.E s f G P ) } ) } { ) } ( ) / / C %./ ! ! W W W A O q ~ ~ ~ ! ~ ~ ~ L ! K D D 1 : f ! W S W S ! X.1.1.1.1.",
"1.1.1.1.1.{ %. . .{  ...I a v H P ( { } ) ) ) ( ( ( [ V  ...! ! ! ! ~ j $ G ~ ! ~ ~ ~ ~ ! ! K G D 5 : d F F W W S W { 1.1.1.1.1.",
"1.1.1.1.1.1.o.o.[  . .{ { n , g D J / { ( ( ( ( { ( ( K S l : a d a , X > L ~ ~ L ~ ! ! F D G C 4 > a Y W S S F S ( 1.1.1.1.1.1.",
"1.1.1.1.1.1.Q o.X.{  .{ {  .n u 4 D J L ( ( ( ( / ( ( ~ C 9 4 < < < 1 5 0 ! ! ~ ! ! ! F G G q 1 : p Y K F W W S / X.1.1.1.1.1.1.",
"1.1.1.1.1.1.1.( o. .{ | { { { I u f V H P ~ ( { / ) ( ( ( ! ~ ~ ~ L L ~ ! ! ! ! ~ F D D D 0 3 : h F K Y F F F ! { 1.1.1.1.1.1.1.",
"1.1.1.1.1.1.1.1.{ o. .{ { { { { E d a g q H L ~ ! ( ( ( / ~ ( ~ ~ ~ ~ ~ ! ~ ! ~ K D G q 5 , : j W K W S F S ! [ 1.1.1.1.1.1.1.1.",
"1.1.1.1.1.1.1.1.1.[ o.{ {  .{ [ { / k : d 9 q H H L K ~ ! ( ~ / ~ ! ~ ! L K D G w q 5 2 : p b ! W F F W S W [ 1.1.1.1.1.1.1.1.1.",
"1.1.1.1.1.1.1.1.1.1.{ o.{ { [ { [ { { R h , 3 4 0 e e G H H K H K H D G e D w 5 5 2 : : k F ! F S W F S ! { 1.1.1.1.1.1.1.1.1.1.",
"1.1.1.1.1.1.1.1.1.1.1.[ o.{ [ [ [ [ ( { [ U j a u 2 4 5 9 0 0 q q q q 5 5 5 < , ; a k W ! W F F W S S ! | 1.1.1.1.1.1.1.1.1.1.1.",
"1.1.1.1.1.1.1.1.1.1.1.1.(  . .( ( [ [ [ ( { [ E I h d : , , 2 2 2 , , : : : s j Z Y ! ! S ! F F S W / { 1.1.1.1.1.1.1.1.1.1.1.1.",
"1.1.1.1.1.1.1.1.1.1.1.1.1./ {  .{ / ( / / / / [ ( / Q R m k j k j j z b A E W ! ! ! ! S ! S F F W /  .1.1.1.1.1.1.1.1.1.1.1.1.1.",
"1.1.1.1.1.1.1.1.1.1.1.1.1.1.1.[  . .( ( / / / / / / / ! / / / / / / ~ ! ! ! W ! W F W F S S W / [ 1.1.1.1.1.1.1.1.1.1.1.1.1.1.1.",
"1.1.1.1.1.1.1.1.1.1.1.1.1.1.1.1./ [ { { [ / / / / / / Q / ! Q Y F ! ! W W W W W W F F F W / { { 1.1.1.1.1.1.1.1.1.1.1.1.1.1.1.1.",
"1.1.1.1.1.1.1.1.1.1.1.1.1.1.1.1.1.1./ [  .{ ( ( / / / W W Q ( 3 : ! W W W W W F F ! W / (  .1.1.1.1.1.1.1.1.1.1.1.1.1.1.1.1.1.1.",
"1.1.1.1.1.1.1.1.1.1.1.1.1.1.1.1.1.1.1.1.Q / [ [ / / / / Q Q ! W S ! W ! W W ! ! / ( [  .1.1.1.1.1.1.1.1.1.1.1.1.1.1.1.1.1.1.1.1.",
"1.1.1.1.1.1.1.1.1.1.1.1.1.1.1.1.1.1.1.1.1.1.1./ ( [ [ ( ( ( / ( ( / / / ( / [ [ | 1.1.1.1.1.1.1.1.1.1.1.1.1.1.1.1.1.1.1.1.1.1.1.",
"1.1.1.1.1.1.1.1.1.1.1.1.1.1.1.1.1.1.1.1.1.1.1.1.1.1.1.1.[ [ / ( [ [ ( | 1.1.1.1.1.1.1.1.1.1.1.1.1.1.1.1.1.1.1.1.1.1.1.1.1.1.1.1."
};
