/* XPM */
static char *c107c797e5d546d6c3b01fa7120b3767[] = {
/* columns rows colors chars-per-pixel */
"32 32 60 1 ",
"  c #AF933C",
". c #B1973E",
"X c #B59A3C",
"o c #B99E3C",
"O c #BDA23C",
"+ c #C2A73D",
"@ c #C4A93E",
"# c #AC9141",
"$ c #B19642",
"% c #B59A44",
"& c #B99F40",
"* c #B79C48",
"= c #B99D4A",
"- c #B49950",
"; c #BDA242",
": c #BDA24C",
"> c #BEA352",
", c #C1A544",
"< c #C5AA45",
"1 c #C9AE43",
"2 c #C1A64B",
"3 c #C5AA4D",
"4 c #C9AE4B",
"5 c #CDB243",
"6 c #CDB24D",
"7 c #D1B546",
"8 c #D1B64C",
"9 c #D4B94C",
"0 c #C1A555",
"q c #C6AB53",
"w c #CAAE54",
"e c #C1A759",
"r c #C5AA5B",
"t c #C9AE5A",
"y c #CEB353",
"u c #CCB25B",
"i c #D1B654",
"p c #D4B954",
"a c #D1B65B",
"s c #D4BA5C",
"d c #D9BE5B",
"f c #C5AC60",
"g c #C8AD62",
"h c #CEB462",
"j c #CFB56A",
"k c #D1B762",
"l c #D5BB63",
"z c #D8BE65",
"x c #D0B76A",
"c c #D6BC6B",
"v c #D8BF6C",
"b c #CDB675",
"n c #D6BE72",
"m c #D8BF71",
"M c #DBC05E",
"N c #DBC164",
"B c #DAC16C",
"V c #DAC273",
"C c #DCC47A",
"Z c None",
/* pixels */
"ZZZZZZZZZZZZZBvVVVVZZZZZZZZZZZZZ",
"ZZZZZZZZZZVVjuxVxcthVVZZZZZZZZZZ",
"ZZZZZZZZVxtVkqxxxx3tluhvZZZZZZZZ",
"ZZZZZZcCVufVt>>0302rh3thcmZZZZZZ",
"ZZZZZvhqBn>>3178861<:>rluuVZZZZZ",
"ZZZZVCqqt>39MBVVVBNM8<:23lumZZZZ",
"ZZZccxVe38NVCVBVBVBBBM7;>u3uVZZZ",
"ZZZvqhg29VCVcNVVBBcacvN8+*qqaZZZ",
"ZZVxqt>9CVVVjhVBvvztuvzz9;:aalZZ",
"ZZCCm>8VCVBCb>BBvvsv2szlz5%taaZZ",
"ZmCCt<NCVCNCn>BBvzsmr2zlkp@=aicZ",
"ZCCm>8CVBBcCV:cBvzsme=Nlss7%taaZ",
"ZCCh2MCmVcwcC>uBvllv-,wssspO2auZ",
"lCCf1BVBcVjtCf2Nzpzz=w%4lsp@=ayv",
"vCVe8VVVkycBVxq444kk0$o1idp1%iyl",
"vnb08VBBV33yVchkskze 563Osa1%w6l",
"vjxe9VBlknu3hv=,<iv=;w2.Opp1%33l",
"cCV>8BBBzskccvu64yk0*Xo4ipp1%y6l",
"lmVr1Nvvvvsasvuraza#,6piiii@%i6z",
"ZCVg,dvcvzzvacuo4z0$dsapii8o=yiZ",
"ZVvx:9vvzlzzalk%yz=&sspiip5.q6iZ",
"Zcmm0<MNzlzlssz*ws$4spipp9O%y6lZ",
"ZZVcx=7Nzzlssaz%Oy#8pipp65.36yZZ",
"ZZcvvto9zzlssizy63 pppp65X=y6aZZ",
"ZZZmcc0o9ldlsiq22$oppi85o%y6yZZZ",
"ZZZsvlc>o5pdss4,,<8ii85X%666lZZZ",
"ZZZZlcllr%+7pppspp995O :y66lZZZZ",
"ZZZZZkcllu:%O+555@+o.%3i6wkZZZZZ",
"ZZZZZZsllssu0=%%%%*2wy66ycZZZZZZ",
"ZZZZZZZZklkasaauuyiyy6yaZZZZZZZZ",
"ZZZZZZZZZZkaapaq3iyyikZZZZZZZZZZ",
"ZZZZZZZZZZZZZsassalZZZZZZZZZZZZZ"
};
